<svg xmlns="http://www.w3.org/2000/svg" xmlns:xlink="http://www.w3.org/1999/xlink" viewBox="0 0 95 20" fill="#fff" fill-rule="evenodd" stroke="#000" stroke-linecap="round" stroke-linejoin="round"><use xlink:href="#A" x=".5" y=".5"/><symbol id="A" overflow="visible"><path d="M.001 14.884l2.973-3.558c1.82 1.386 3.892 1.97 5.846 1.97 1.002 0 1.437-.267 1.437-.718v-.05c0-.484-.518-.735-2.305-1.102C4.21 10.658.92 9.589.92 6.064v-.05C.92 2.84 3.392.384 8.002.384c3.224 0 5.596.768 7.533 2.288l-2.74 3.775A8.68 8.68 0 0 0 7.784 4.81c-.835 0-1.22.284-1.22.685v.05c0 .45.45.735 2.222 1.07 4.276.785 7.132 2.02 7.132 5.395v.033c0 3.508-2.9 5.646-7.366 5.646-3.4.017-6.43-.935-8.552-2.806zm21.48-9.454h-4.9V.703h15.4V5.43h-4.9v11.96h-5.58zm24.337 6.28c2.02-.986 3.3-2.673 3.3-5.095v-.05c0-1.72-.518-2.957-1.52-3.96-1.17-1.17-3.057-1.904-6.013-1.904h-8.15v16.687h5.58v-4.75h1.186l3.14 4.76h6.364zm-2.272-4.694c0 1.02-.818 1.62-2.138 1.62h-2.404V5.378h2.44c1.286 0 2.12.518 2.12 1.604v.033zM57.654 0l-9.003 17.4h5.98l3.023-6.08 3.023 6.08h5.98zm26.46 0l-9.003 17.4h5.98l3.023-6.08 3.023 6.08h5.98zm-13.24 18.075l9.02-17.4h-5.98l-3.023 6.08-3.04-6.08h-5.98z" stroke="none" fill="#fc6100" fill-rule="nonzero"/></symbol></svg>